<?xml version="1.0" encoding="iso-8859-1"?>
<!-- Generator: Adobe Illustrator 19.0.0, SVG Export Plug-In . SVG Version: 6.00 Build 0)  -->
<svg fill= '#ff5678' version="1.1" id="Capa_1" xmlns="http://www.w3.org/2000/svg" xmlns:xlink="http://www.w3.org/1999/xlink" x="0px" y="0px"
	 viewBox="0 0 512 512" style="enable-background:new 0 0 512 512;" xml:space="preserve">
<g>
	<g>
		<path d="M442.87,32.548C421.889,11.56,393.994,0,364.322,0c-24.617,0-48.008,7.964-67.245,22.66l155.689,155.688
			C485.871,134.829,482.577,72.271,442.87,32.548z"/>
	</g>
</g>
<g>
	<g>
		<path d="M275.871,43.881c-15.8,20.731-23.772,46.256-22.501,72.533L36.654,348.16l34.709,34.722l-3.688,3.688
			c-13.878,13.878-21.521,32.329-21.521,51.955c0,19.625,7.643,38.077,21.521,51.954C81.553,504.357,100.004,512,119.63,512
			s38.077-7.643,51.955-21.521l91.941-91.941c16.951-16.951,44.532-16.951,61.483,0l4.195,4.195l21.213-21.213l-4.195-4.195
			c-28.647-28.648-75.262-28.648-103.909,0l-91.941,91.941c-16.951,16.951-44.532,16.951-61.483,0
			c-16.951-16.951-16.951-44.532,0-61.483l3.684-3.684l34.794,34.807l231.666-216.799c1.814,0.088,3.626,0.14,5.433,0.14
			c24.348-0.002,47.803-7.945,67.099-22.674L275.871,43.881z"/>
	</g>
</g>
<g>
</g>
<g>
</g>
<g>
</g>
<g>
</g>
<g>
</g>
<g>
</g>
<g>
</g>
<g>
</g>
<g>
</g>
<g>
</g>
<g>
</g>
<g>
</g>
<g>
</g>
<g>
</g>
<g>
</g>
</svg>
